<svg width="674" height="97" viewBox="0 0 674 97" fill="none" xmlns="http://www.w3.org/2000/svg">
<path d="M52.5155 94H29.8595L0.2915 2.60799H20.8995L41.2515 66.864H41.5075L62.1155 2.60799H82.8515L52.5155 94ZM107.81 58.672H131.49L119.97 25.136H119.714L107.81 58.672ZM109.729 2.60799H130.338L164.514 94H143.65L136.738 73.648H102.562L95.3935 94H75.1695L109.729 2.60799ZM192.491 43.952H214.507C219.115 43.952 222.571 42.928 224.875 40.88C227.179 38.832 228.331 35.504 228.331 30.896C228.331 26.4587 227.179 23.2587 224.875 21.296C222.571 19.248 219.115 18.224 214.507 18.224H192.491V43.952ZM172.395 2.60799H221.675C225.771 2.60799 229.44 3.29066 232.683 4.656C236.011 5.936 238.827 7.728 241.131 10.032C243.52 12.336 245.312 15.024 246.507 18.096C247.787 21.0827 248.427 24.3253 248.427 27.824C248.427 33.2 247.275 37.8507 244.971 41.776C242.752 45.7013 239.083 48.688 233.963 50.736V50.992C236.437 51.6747 238.485 52.7413 240.107 54.192C241.728 55.5573 243.051 57.2213 244.075 59.184C245.099 61.0613 245.824 63.152 246.251 65.456C246.763 67.76 247.104 70.064 247.275 72.368C247.36 73.8187 247.445 75.5253 247.531 77.488C247.616 79.4507 247.744 81.456 247.915 83.504C248.171 85.552 248.512 87.5147 248.939 89.392C249.451 91.184 250.176 92.72 251.115 94H231.019C229.909 91.0987 229.227 87.6427 228.971 83.632C228.715 79.6213 228.331 75.7813 227.819 72.112C227.136 67.3333 225.685 63.8347 223.467 61.616C221.248 59.3973 217.621 58.288 212.587 58.288H192.491V94H172.395V2.60799ZM264.77 2.60799H329.026V19.504H284.866V40.624H323.138V56.24H284.866V94H264.77V2.60799ZM340.645 2.60799H408.997V19.504H360.741V39.088H405.029V54.704H360.741V77.104H410.021V94H340.645V2.60799ZM443.869 19.504H416.477V2.60799H491.357V19.504H463.965V94H443.869V19.504ZM562.823 33.328C562.481 31.024 561.713 28.9333 560.519 27.056C559.324 25.0933 557.831 23.3867 556.039 21.936C554.247 20.4853 552.199 19.376 549.895 18.608C547.676 17.7547 545.329 17.328 542.855 17.328C538.332 17.328 534.492 18.224 531.335 20.016C528.177 21.7227 525.617 24.0693 523.655 27.056C521.692 29.9573 520.241 33.2853 519.303 37.04C518.449 40.7947 518.023 44.6773 518.023 48.688C518.023 52.528 518.449 56.2827 519.303 59.952C520.241 63.536 521.692 66.7787 523.655 69.68C525.617 72.5813 528.177 74.928 531.335 76.72C534.492 78.4267 538.332 79.28 542.855 79.28C548.999 79.28 553.777 77.4027 557.191 73.648C560.689 69.8933 562.823 64.944 563.59 58.8H583.047C582.535 64.5173 581.212 69.68 579.079 74.288C576.945 78.896 574.129 82.8213 570.631 86.064C567.132 89.3067 563.036 91.7813 558.343 93.488C553.649 95.1947 548.487 96.048 542.855 96.048C535.857 96.048 529.543 94.8533 523.911 92.464C518.364 89.9893 513.671 86.6187 509.831 82.352C505.991 78.0853 503.047 73.0933 500.999 67.376C498.951 61.5733 497.927 55.344 497.927 48.688C497.927 41.8613 498.951 35.5467 500.999 29.744C503.047 23.856 505.991 18.736 509.831 14.384C513.671 10.032 518.364 6.61866 523.911 4.144C529.543 1.66933 535.857 0.431999 542.855 0.431999C547.889 0.431999 552.625 1.15733 557.062 2.60799C561.585 4.05866 565.596 6.192 569.095 9.008C572.679 11.7387 575.623 15.152 577.927 19.248C580.231 23.344 581.681 28.0373 582.279 33.328H562.823ZM596.77 2.60799H616.866V37.68H653.858V2.60799H673.954V94H653.858V54.576H616.866V94H596.77V2.60799Z" fill="black"/>
</svg>
